<svg width="19" height="20" viewBox="0 0 19 20" fill="none" xmlns="http://www.w3.org/2000/svg">
<g filter="url(#filter0_d_4640_664)">
<mask id="path-1-outside-1_4640_664" maskUnits="userSpaceOnUse" x="2" y="1" width="15" height="16" fill="black">
<rect fill="white" x="2" y="1" width="15" height="16"/>
<path fill-rule="evenodd" clip-rule="evenodd" d="M7.99976 16C7.99976 16 5.79399 14.3013 5.01798 13C4.24196 11.6987 2.77145 10.041 3.03012 9C3.2888 7.95899 4.24196 7.63092 5.01798 8.41167C5.79399 9.19243 6.31674 10.8841 6.83408 10.6238C7.35143 10.3636 6.96342 7.89117 6.44607 6.45978C5.92873 5.02839 5.38936 2 6.44607 2C7.50279 2 7.50279 3 7.99976 4.5C8.49672 6 8.10871 8 8.49672 8C8.88473 8 9.03279 7.65063 9.03279 7C9.03279 6.82319 9.06725 6.67375 9.13721 6.54986C9.32468 6.21788 9.76709 6.0694 10.4846 6.0694C11.4698 6.0694 10.9815 8 11.4785 8C11.9755 8 11.9755 8.04101 11.9755 7C11.9755 5.95899 12.4363 6.0694 13.4302 6.0694C14.4241 6.0694 13.9429 8 14.4603 8C14.9776 8 14.4603 7 14.9572 7C15.4542 7 15.9512 7.15773 15.9512 9.5C15.9512 11.8423 16.2302 11.959 15.4542 13C14.6782 14.041 13.9633 15 13.9633 15C13.9633 15 13.9633 16 13.4302 16C12.8971 16 12.6221 15 11.9755 15C11.3288 15 10.9815 16 10.9815 16H7.99976ZM13.9633 14V10H12.9694V14H13.9633ZM10.9815 13C10.9815 13.2709 11.2121 14 11.4785 14C11.753 14 11.9755 13.2754 11.9755 13V11C11.9755 10.7291 11.7449 10 11.4785 10C11.204 10 10.9815 10.7246 10.9815 11V13ZM8.99368 13C8.99368 13.2709 9.22421 14 9.49064 14C9.76511 14 9.98761 13.2754 9.98761 13V11C9.98761 10.7291 9.75708 10 9.49064 10C9.21618 10 8.99368 10.7246 8.99368 11V13Z"/>
</mask>
<path fill-rule="evenodd" clip-rule="evenodd" d="M7.99976 16C7.99976 16 5.79399 14.3013 5.01798 13C4.24196 11.6987 2.77145 10.041 3.03012 9C3.2888 7.95899 4.24196 7.63092 5.01798 8.41167C5.79399 9.19243 6.31674 10.8841 6.83408 10.6238C7.35143 10.3636 6.96342 7.89117 6.44607 6.45978C5.92873 5.02839 5.38936 2 6.44607 2C7.50279 2 7.50279 3 7.99976 4.5C8.49672 6 8.10871 8 8.49672 8C8.88473 8 9.03279 7.65063 9.03279 7C9.03279 6.82319 9.06725 6.67375 9.13721 6.54986C9.32468 6.21788 9.76709 6.0694 10.4846 6.0694C11.4698 6.0694 10.9815 8 11.4785 8C11.9755 8 11.9755 8.04101 11.9755 7C11.9755 5.95899 12.4363 6.0694 13.4302 6.0694C14.4241 6.0694 13.9429 8 14.4603 8C14.9776 8 14.4603 7 14.9572 7C15.4542 7 15.9512 7.15773 15.9512 9.5C15.9512 11.8423 16.2302 11.959 15.4542 13C14.6782 14.041 13.9633 15 13.9633 15C13.9633 15 13.9633 16 13.4302 16C12.8971 16 12.6221 15 11.9755 15C11.3288 15 10.9815 16 10.9815 16H7.99976ZM13.9633 14V10H12.9694V14H13.9633ZM10.9815 13C10.9815 13.2709 11.2121 14 11.4785 14C11.753 14 11.9755 13.2754 11.9755 13V11C11.9755 10.7291 11.7449 10 11.4785 10C11.204 10 10.9815 10.7246 10.9815 11V13ZM8.99368 13C8.99368 13.2709 9.22421 14 9.49064 14C9.76511 14 9.98761 13.2754 9.98761 13V11C9.98761 10.7291 9.75708 10 9.49064 10C9.21618 10 8.99368 10.7246 8.99368 11V13Z" fill="white"/>
<path d="M7.99976 16L7.38959 16.7923L7.65932 17H7.99976V16ZM3.03012 9L4.00061 9.24115L3.03012 9ZM5.01798 8.41167L4.30872 9.11662L4.30872 9.11662L5.01798 8.41167ZM6.83408 10.6238L6.38469 9.73048L6.38469 9.73048L6.83408 10.6238ZM6.44607 6.45978L7.38653 6.11987L6.44607 6.45978ZM6.44607 2V1H6.44607L6.44607 2ZM8.49672 8L8.49672 9H8.49672L8.49672 8ZM9.03279 7H8.03279H9.03279ZM9.13721 6.54986L8.26645 6.05814L9.13721 6.54986ZM10.4846 6.0694V5.0694V6.0694ZM11.4785 8V7V8ZM11.9755 7L10.9755 7L11.9755 7ZM13.4302 6.0694V5.0694V6.0694ZM14.4603 8V9V8ZM14.9572 7V6V7ZM15.9512 9.5L14.9512 9.5L15.9512 9.5ZM15.4542 13L16.256 13.5977L15.4542 13ZM13.9633 15L13.1616 14.4023L12.9633 14.6683V15H13.9633ZM13.4302 16V15V16ZM11.9755 15V14V15ZM10.9815 16V17H11.6929L11.9262 16.328L10.9815 16ZM13.9633 14V15H14.9633V14H13.9633ZM13.9633 10H14.9633V9H13.9633V10ZM12.9694 10V9H11.9694V10H12.9694ZM12.9694 14H11.9694V15H12.9694V14ZM7.99976 16C8.60992 15.2077 8.60999 15.2078 8.61005 15.2078C8.61006 15.2078 8.61011 15.2079 8.61013 15.2079C8.61016 15.2079 8.61017 15.2079 8.61014 15.2079C8.61008 15.2078 8.60989 15.2077 8.60957 15.2075C8.60893 15.207 8.60777 15.2061 8.6061 15.2048C8.60277 15.2022 8.59741 15.198 8.59014 15.1923C8.5756 15.181 8.55343 15.1636 8.5245 15.1407C8.46661 15.0948 8.38185 15.0269 8.27722 14.9411C8.06748 14.769 7.78041 14.5269 7.4712 14.2468C6.82554 13.662 6.18129 12.9983 5.87685 12.4878L4.15911 13.5122C4.63067 14.3029 5.47732 15.1393 6.12855 15.7291C6.46777 16.0364 6.78065 16.3003 7.00874 16.4874C7.12303 16.5811 7.21665 16.6561 7.28242 16.7082C7.31532 16.7343 7.3413 16.7547 7.35945 16.7689C7.36852 16.7759 7.37565 16.7815 7.38071 16.7854C7.38324 16.7874 7.38525 16.7889 7.38674 16.7901C7.38748 16.7906 7.38809 16.7911 7.38857 16.7915C7.38881 16.7917 7.38901 16.7918 7.38918 16.792C7.38927 16.792 7.38937 16.7921 7.38941 16.7921C7.38951 16.7922 7.38959 16.7923 7.99976 16ZM5.87685 12.4878C5.66386 12.1307 5.40792 11.7566 5.16862 11.4073C4.92191 11.0471 4.68923 10.708 4.48927 10.3809C4.28744 10.0507 4.14508 9.77411 4.06554 9.54859C3.98264 9.31353 4.00302 9.23147 4.00061 9.24115L2.05964 8.75885C1.9279 9.28903 2.03508 9.80457 2.1794 10.2138C2.32709 10.6325 2.55236 11.0469 2.78282 11.424C3.01515 11.804 3.27943 12.1884 3.51861 12.5375C3.76521 12.8975 3.98409 13.2187 4.15911 13.5122L5.87685 12.4878ZM4.00061 9.24115C4.06898 8.96602 4.17638 8.96218 4.12753 8.9774C4.10906 8.98316 4.10187 8.97728 4.12033 8.983C4.1427 8.98993 4.21079 9.01809 4.30872 9.11662L5.72723 7.70672C5.14243 7.11835 4.33741 6.81716 3.53256 7.06795C2.74846 7.31227 2.24994 7.99298 2.05964 8.75885L4.00061 9.24115ZM4.30872 9.11662C4.58399 9.39357 4.81763 9.84192 5.16521 10.4221C5.30679 10.6584 5.50124 10.9715 5.73327 11.2041C5.85201 11.3231 6.04315 11.4863 6.30884 11.5793C6.61387 11.6861 6.96141 11.6792 7.28348 11.5171L6.38469 9.73048C6.57742 9.63353 6.79545 9.63064 6.96984 9.6917C7.10489 9.73899 7.16425 9.80664 7.14911 9.79146C7.11337 9.75564 7.03163 9.64583 6.88086 9.39418C6.64373 8.99838 6.22798 8.21053 5.72723 7.70672L4.30872 9.11662ZM7.28348 11.5171C7.65892 11.3283 7.83526 11.0024 7.91642 10.7983C8.00254 10.5817 8.04091 10.3552 8.05976 10.1615C8.09794 9.7692 8.07351 9.31113 8.02132 8.86483C7.91609 7.96496 7.67333 6.91339 7.38653 6.11987L5.50562 6.79969C5.73616 7.43755 5.94607 8.33788 6.03485 9.09712C6.07967 9.48037 6.08757 9.77866 6.06916 9.96783C6.05972 10.0649 6.04757 10.0854 6.05791 10.0594C6.06328 10.0459 6.13858 9.85429 6.38469 9.73048L7.28348 11.5171ZM7.38653 6.11987C7.15563 5.481 6.91336 4.4562 6.85322 3.62128C6.82216 3.19014 6.84802 2.91007 6.887 2.77734C6.90528 2.71511 6.9043 2.76409 6.82952 2.83907C6.72941 2.93945 6.58267 3 6.44608 3L6.44607 1C6.0453 1 5.68426 1.15518 5.4134 1.42677C5.16788 1.67296 5.03972 1.96972 4.96804 2.21376C4.82712 2.69359 4.82202 3.26008 4.85839 3.76496C4.93309 4.80208 5.21918 6.00717 5.50562 6.79969L7.38653 6.11987ZM6.44607 3C6.54318 3 6.51732 3.01908 6.46504 2.9799C6.43025 2.95383 6.45693 2.95379 6.51883 3.09323C6.58311 3.23804 6.64559 3.43804 6.73387 3.74937C6.81658 4.04106 6.91749 4.41304 7.0505 4.8145L8.94901 4.1855C8.83354 3.83696 8.74809 3.52144 8.65801 3.20376C8.57349 2.90571 8.47675 2.57446 8.34682 2.28177C8.2145 1.98371 8.01199 1.63992 7.66447 1.37947C7.29946 1.10592 6.87733 1 6.44607 1V3ZM7.0505 4.8145C7.24447 5.39996 7.27532 6.12716 7.28929 6.83231C7.29546 7.14385 7.29877 7.51005 7.33275 7.78618C7.34866 7.91555 7.38198 8.13254 7.48184 8.3418C7.58908 8.56654 7.89646 9 8.49672 9L8.49672 7C8.99998 7 9.2346 7.37096 9.28686 7.48046C9.33173 7.57449 9.32781 7.62351 9.31778 7.54195C9.29985 7.3962 9.29635 7.16865 9.2889 6.79269C9.27563 6.12284 9.25201 5.10004 8.94901 4.1855L7.0505 4.8145ZM8.49672 9C8.74842 9 9.02179 8.9415 9.27543 8.78246C9.52726 8.62454 9.69463 8.4083 9.80217 8.19619C9.9981 7.80975 10.0328 7.36278 10.0328 7H8.03279C8.03279 7.128 8.02528 7.21591 8.01623 7.27225C8.00672 7.3315 7.99981 7.32834 8.01834 7.29178C8.04037 7.24835 8.09797 7.16011 8.21291 7.08804C8.32966 7.01483 8.43902 7 8.49672 7L8.49672 9ZM10.0328 7C10.0328 6.97606 10.0352 6.97128 10.033 6.98072C10.0305 6.99122 10.0238 7.01359 10.008 7.04158L8.26645 6.05814C8.09294 6.36541 8.03279 6.69372 8.03279 7H10.0328ZM10.008 7.04158C9.95406 7.13704 9.88702 7.14849 9.94367 7.12858C10.0176 7.10261 10.1813 7.0694 10.4846 7.0694V5.0694C9.74648 5.0694 8.75146 5.19927 8.26645 6.05814L10.008 7.04158ZM10.4846 7.0694C10.4356 7.0694 10.3437 7.05456 10.248 6.99291C10.1594 6.93579 10.1202 6.87234 10.1114 6.85665C10.1049 6.84479 10.1152 6.85995 10.1307 6.92241C10.1458 6.98271 10.1595 7.06105 10.1731 7.16455C10.1913 7.30353 10.2244 7.67936 10.2751 7.91159C10.3028 8.03833 10.3611 8.26688 10.5083 8.48189C10.6883 8.74487 11.0176 9 11.4785 9V7C11.8152 7 12.051 7.1948 12.1587 7.3522C12.2336 7.46163 12.2409 7.53935 12.2291 7.4851C12.2008 7.35534 12.2012 7.24852 12.1562 6.90485C12.1238 6.65751 12.0608 6.24731 11.8598 5.88547C11.7506 5.68878 11.5839 5.4745 11.3315 5.31181C11.072 5.14457 10.7798 5.0694 10.4846 5.0694V7.0694ZM11.4785 9C11.5335 9 11.7579 9.00722 11.9408 8.97471C12.0589 8.95371 12.229 8.90798 12.4021 8.79457C12.5857 8.67428 12.7157 8.51557 12.8012 8.35048C12.9413 8.08019 12.9586 7.79012 12.9662 7.64982C12.9758 7.47341 12.9755 7.24786 12.9755 7L10.9755 7C10.9755 7.27264 10.9751 7.43234 10.9692 7.54103C10.9664 7.59261 10.9635 7.60548 10.9651 7.59636C10.9663 7.58981 10.9783 7.52134 11.0255 7.43027C11.08 7.32512 11.1711 7.21008 11.3062 7.12158C11.4307 7.03997 11.5425 7.01415 11.5908 7.00557C11.6343 6.99785 11.656 6.99929 11.6234 6.99991C11.5884 7.00058 11.5581 7 11.4785 7V9ZM12.9755 7C12.9755 6.9045 12.9809 6.84428 12.9861 6.80998C12.9913 6.77545 12.994 6.78177 12.9811 6.81178C12.9664 6.8458 12.9356 6.90053 12.8799 6.95607C12.8239 7.01189 12.766 7.04552 12.7237 7.0636C12.6861 7.07971 12.6683 7.08038 12.6879 7.07732C12.7077 7.07421 12.7465 7.07014 12.8159 7.06789C12.8851 7.06566 12.9668 7.06567 13.0732 7.06665C13.1737 7.06757 13.2999 7.0694 13.4302 7.0694V5.0694C13.2311 5.0694 12.9523 5.06244 12.7513 5.06894C12.5437 5.07565 12.2361 5.09678 11.9365 5.22504C11.5811 5.3772 11.305 5.64833 11.1449 6.01905C11.0067 6.33925 10.9755 6.68716 10.9755 7L12.9755 7ZM13.4302 7.0694C13.384 7.0694 13.2951 7.05543 13.2018 6.99607C13.1152 6.94099 13.0766 6.87968 13.0681 6.86472C13.0618 6.85367 13.0724 6.86934 13.0887 6.93204C13.1045 6.99269 13.1191 7.07132 13.1339 7.17543C13.1541 7.31747 13.1912 7.69155 13.2481 7.93035C13.2792 8.06041 13.3435 8.29016 13.4988 8.50423C13.6879 8.76494 14.0166 9 14.4603 9V7C14.7746 7 15.0052 7.17473 15.1177 7.32986C15.1964 7.43835 15.2057 7.51727 15.1936 7.46634C15.1642 7.34315 15.1624 7.23458 15.114 6.89397C15.079 6.64763 15.012 6.23784 14.8074 5.8774C14.6961 5.68144 14.5279 5.4693 14.2754 5.30864C14.0162 5.1437 13.7249 5.0694 13.4302 5.0694V7.0694ZM14.4603 9C14.6903 9 14.9643 8.94176 15.2111 8.75606C15.4524 8.57444 15.5728 8.34212 15.6326 8.16692C15.6899 7.99937 15.7057 7.84437 15.7119 7.74634C15.7182 7.64554 15.7169 7.5471 15.7163 7.48981C15.7156 7.41799 15.7156 7.38946 15.7167 7.36833C15.7179 7.34491 15.7186 7.38632 15.6967 7.45611C15.673 7.53148 15.6064 7.69094 15.4364 7.82601C15.2571 7.96845 15.0689 8 14.9572 8V6C14.7213 6 14.4406 6.0628 14.1925 6.25992C13.9536 6.44968 13.8419 6.68727 13.7887 6.85639C13.7373 7.01993 13.7242 7.17071 13.7194 7.26448C13.7144 7.36054 13.7159 7.45701 13.7165 7.51019C13.7171 7.5779 13.7168 7.60446 13.7158 7.62085C13.7146 7.64 13.7147 7.59438 13.74 7.52058C13.7678 7.43913 13.8398 7.28493 14.0085 7.158C14.1826 7.02699 14.3596 7 14.4603 7V9ZM14.9572 8C15.0418 8 14.9964 8.01049 14.9186 7.97616C14.8128 7.92952 14.7676 7.85937 14.7684 7.86089C14.7818 7.88468 14.8336 7.9959 14.878 8.27723C14.9214 8.55222 14.9512 8.9452 14.9512 9.5L16.9512 9.5C16.9512 8.3195 16.8369 7.46031 16.5127 6.88241C16.3272 6.55171 16.0645 6.29574 15.7258 6.14632C15.4151 6.00923 15.1211 6 14.9572 6V8ZM14.9512 9.5C14.9512 10.1063 14.9693 10.5692 14.9834 10.928C14.9982 11.3031 15.0054 11.5128 14.9955 11.6778C14.9873 11.8141 14.9687 11.8826 14.9398 11.95C14.9029 12.0364 14.8294 12.165 14.6525 12.4023L16.256 13.5977C16.467 13.3145 16.6497 13.0381 16.7786 12.7367C16.9157 12.4162 16.9729 12.1139 16.9919 11.7981C17.0092 11.5111 16.9952 11.1873 16.9819 10.8493C16.9679 10.4949 16.9512 10.0648 16.9512 9.5L14.9512 9.5ZM14.6525 12.4023C14.2644 12.9228 13.8917 13.4228 13.616 13.7927C13.4781 13.9777 13.3645 14.1301 13.2854 14.2362C13.2458 14.2893 13.2149 14.3308 13.1938 14.3591C13.1833 14.3732 13.1752 14.384 13.1698 14.3913C13.1671 14.395 13.165 14.3977 13.1636 14.3996C13.1629 14.4005 13.1624 14.4012 13.1621 14.4016C13.1619 14.4019 13.1618 14.402 13.1617 14.4022C13.1617 14.4022 13.1616 14.4023 13.1616 14.4023C13.1616 14.4023 13.1616 14.4023 13.1616 14.4023C13.1616 14.4023 13.1616 14.4023 13.9633 15C14.7651 15.5977 14.7651 15.5977 14.7651 15.5976C14.7651 15.5976 14.7651 15.5976 14.7651 15.5976C14.7651 15.5976 14.7652 15.5975 14.7652 15.5975C14.7653 15.5974 14.7654 15.5972 14.7656 15.597C14.7659 15.5965 14.7664 15.5958 14.7671 15.5949C14.7685 15.593 14.7706 15.5903 14.7733 15.5866C14.7787 15.5794 14.7868 15.5685 14.7973 15.5544C14.8184 15.5262 14.8493 15.4846 14.8889 15.4316C14.968 15.3254 15.0816 15.173 15.2195 14.988C15.4952 14.6182 15.8679 14.1182 16.256 13.5977L14.6525 12.4023ZM13.9633 15C12.9633 15 12.9633 14.9997 12.9633 14.9995C12.9633 14.9994 12.9633 14.9992 12.9633 14.999C12.9633 14.9987 12.9633 14.9984 12.9633 14.9981C12.9633 14.9975 12.9633 14.997 12.9633 14.9965C12.9633 14.9955 12.9633 14.9948 12.9633 14.9943C12.9633 14.9932 12.9633 14.993 12.9633 14.9935C12.9633 14.9945 12.9632 14.9985 12.963 15.0049C12.9625 15.0181 12.9614 15.0401 12.9589 15.0677C12.9536 15.1277 12.944 15.1916 12.9304 15.2424C12.9134 15.3063 12.9088 15.28 12.9574 15.2192C12.9871 15.1821 13.0434 15.1241 13.1338 15.0756C13.2292 15.0245 13.3333 15 13.4302 15V17C13.9292 17 14.297 16.7464 14.5194 16.4683C14.718 16.22 14.8133 15.9437 14.8629 15.7576C14.916 15.5584 14.9397 15.3723 14.9511 15.2448C14.9569 15.1787 14.96 15.1226 14.9615 15.081C14.9623 15.0601 14.9628 15.0426 14.963 15.029C14.9631 15.0222 14.9632 15.0163 14.9633 15.0115C14.9633 15.009 14.9633 15.0069 14.9633 15.005C14.9633 15.004 14.9633 15.0031 14.9633 15.0023C14.9633 15.0019 14.9633 15.0015 14.9633 15.0011C14.9633 15.0009 14.9633 15.0006 14.9633 15.0005C14.9633 15.0003 14.9633 15 13.9633 15ZM13.4302 15C13.6321 15 13.7383 15.1002 13.7147 15.0802C13.6785 15.0496 13.6349 14.9997 13.5018 14.8459C13.3985 14.7265 13.2228 14.5229 13.0005 14.3561C12.7609 14.1766 12.4167 14 11.9755 14V16C11.8576 16 11.7902 15.9484 11.8008 15.9564C11.8285 15.9771 11.8761 16.0235 11.9891 16.1541C12.0722 16.2503 12.2377 16.4504 12.4232 16.6073C12.6213 16.7748 12.9618 17 13.4302 17V15ZM11.9755 14C11.1149 14 10.6053 14.645 10.4054 14.943C10.2824 15.1265 10.1933 15.3029 10.1357 15.4296C10.1062 15.4943 10.0834 15.5496 10.0672 15.5909C10.059 15.6117 10.0524 15.6291 10.0474 15.6427C10.0448 15.6496 10.0427 15.6555 10.041 15.6603C10.0401 15.6628 10.0393 15.665 10.0386 15.6669C10.0383 15.6679 10.038 15.6688 10.0377 15.6696C10.0375 15.6701 10.0374 15.6705 10.0373 15.6709C10.0372 15.671 10.0371 15.6713 10.0371 15.6714C10.037 15.6717 10.0369 15.672 10.9815 16C11.9262 16.328 11.9261 16.3283 11.926 16.3286C11.926 16.3286 11.9259 16.3289 11.9258 16.3291C11.9257 16.3294 11.9256 16.3297 11.9255 16.33C11.9253 16.3306 11.9251 16.3311 11.9249 16.3316C11.9246 16.3326 11.9243 16.3334 11.9241 16.3339C11.9237 16.335 11.9236 16.3353 11.9238 16.3348C11.9242 16.3338 11.9257 16.3298 11.9283 16.3232C11.9335 16.3098 11.9429 16.2869 11.9561 16.2579C11.9838 16.1971 12.0219 16.1235 12.0665 16.057C12.0883 16.0245 12.1082 15.9988 12.1252 15.9796C12.1425 15.9601 12.152 15.9527 12.152 15.9527C12.1505 15.9539 12.0865 16 11.9755 16V14ZM10.9815 15H7.99976V17H10.9815V15ZM14.9633 14V10H12.9633V14H14.9633ZM13.9633 9H12.9694V11H13.9633V9ZM11.9694 10V14H13.9694V10H11.9694ZM12.9694 15H13.9633V13H12.9694V15ZM9.98153 13C9.98153 13.3159 10.088 13.7033 10.2084 13.9894C10.2725 14.1419 10.37 14.3375 10.5129 14.5131C10.6268 14.6531 10.948 15 11.4785 15V13C11.6815 13 11.8341 13.0708 11.9218 13.1272C12.0053 13.1809 12.0504 13.2338 12.064 13.2506C12.0888 13.281 12.0786 13.2774 12.0518 13.2138C12.029 13.1594 12.0079 13.0943 11.9936 13.0352C11.9867 13.0066 11.9829 12.9856 11.9811 12.9736C11.9788 12.9583 11.9815 12.9691 11.9815 13H9.98153ZM11.4785 15C12.0006 15 12.3216 14.6667 12.444 14.518C12.5904 14.3402 12.6887 14.1421 12.7528 13.9883C12.8744 13.6969 12.9755 13.3121 12.9755 13H10.9755C10.9755 12.9599 10.9797 12.9727 10.9631 13.043C10.9492 13.102 10.9289 13.1658 10.907 13.2183C10.8812 13.2801 10.8724 13.2803 10.8999 13.247C10.9151 13.2284 10.9616 13.1751 11.0462 13.1219C11.1356 13.0656 11.2843 13 11.4785 13V15ZM12.9755 13V11H10.9755V13H12.9755ZM12.9755 11C12.9755 10.6841 12.869 10.2967 12.7486 10.0106C12.6845 9.8581 12.587 9.66248 12.4441 9.48691C12.3302 9.34687 12.009 9 11.4785 9V11C11.2755 11 11.1229 10.9292 11.0352 10.8728C10.9517 10.8191 10.9066 10.7662 10.893 10.7494C10.8682 10.719 10.8784 10.7226 10.9052 10.7862C10.928 10.8406 10.9491 10.9057 10.9634 10.9648C10.9703 10.9934 10.9741 11.0144 10.9759 11.0264C10.9782 11.0417 10.9755 11.0309 10.9755 11H12.9755ZM11.4785 9C10.9564 9 10.6354 9.33325 10.513 9.482C10.3666 9.65977 10.2683 9.85794 10.2042 10.0117C10.0826 10.3031 9.98153 10.6879 9.98153 11H11.9815C11.9815 11.0401 11.9773 11.0273 11.9939 10.957C12.0078 10.898 12.0281 10.8342 12.05 10.7817C12.0758 10.7199 12.0846 10.7197 12.0571 10.753C12.0419 10.7716 11.9954 10.8249 11.9108 10.8781C11.8214 10.9344 11.6726 11 11.4785 11V9ZM9.98153 11V13H11.9815V11H9.98153ZM7.99368 13C7.99368 13.3159 8.10012 13.7033 8.22051 13.9894C8.28467 14.1419 8.38211 14.3375 8.52501 14.5131C8.63899 14.6531 8.96015 15 9.49064 15V13C9.69365 13 9.84627 13.0708 9.93395 13.1272C10.0174 13.1809 10.0625 13.2338 10.0762 13.2506C10.1009 13.281 10.0908 13.2774 10.064 13.2138C10.0411 13.1594 10.0201 13.0943 10.0058 13.0352C9.99885 13.0066 9.995 12.9856 9.99322 12.9736C9.99094 12.9583 9.99368 12.9691 9.99368 13H7.99368ZM9.49064 15C10.0127 15 10.3337 14.6667 10.4562 14.518C10.6025 14.3402 10.7008 14.1421 10.765 13.9883C10.8865 13.6969 10.9876 13.3121 10.9876 13H8.98761C8.98761 12.9599 8.9918 12.9727 8.97524 13.043C8.96132 13.102 8.94101 13.1658 8.91914 13.2183C8.89336 13.2801 8.88458 13.2803 8.912 13.247C8.92726 13.2284 8.97371 13.1751 9.05834 13.1219C9.14778 13.0656 9.29649 13 9.49064 13V15ZM10.9876 13V11H8.98761V13H10.9876ZM10.9876 11C10.9876 10.6841 10.8812 10.2967 10.7608 10.0106C10.6966 9.8581 10.5992 9.66248 10.4563 9.48691C10.3423 9.34687 10.0211 9 9.49064 9V11C9.28764 11 9.13502 10.9292 9.04734 10.8728C8.96386 10.8191 8.91877 10.7662 8.90512 10.7494C8.88038 10.719 8.89053 10.7226 8.9173 10.7862C8.94018 10.8406 8.96121 10.9057 8.97551 10.9648C8.98244 10.9934 8.98629 11.0144 8.98807 11.0264C8.99035 11.0417 8.98761 11.0309 8.98761 11H10.9876ZM9.49064 9C8.96859 9 8.64755 9.33325 8.52512 9.482C8.37879 9.65977 8.28048 9.85794 8.21633 10.0117C8.09477 10.3031 7.99368 10.6879 7.99368 11H9.99368C9.99368 11.0401 9.98949 11.0273 10.006 10.957C10.02 10.898 10.0403 10.8342 10.0621 10.7817C10.0879 10.7199 10.0967 10.7197 10.0693 10.753C10.054 10.7716 10.0076 10.8249 9.92295 10.8781C9.83351 10.9344 9.6848 11 9.49064 11V9ZM7.99368 11V13H9.99368V11H7.99368Z" fill="black" mask="url(#path-1-outside-1_4640_664)"/>
</g>
<defs>
<filter id="filter0_d_4640_664" x="-6.10352e-05" y="0" width="19" height="20" filterUnits="userSpaceOnUse" color-interpolation-filters="sRGB">
<feFlood flood-opacity="0" result="BackgroundImageFix"/>
<feColorMatrix in="SourceAlpha" type="matrix" values="0 0 0 0 0 0 0 0 0 0 0 0 0 0 0 0 0 0 127 0" result="hardAlpha"/>
<feOffset dy="1"/>
<feGaussianBlur stdDeviation="1"/>
<feColorMatrix type="matrix" values="0 0 0 0 0 0 0 0 0 0 0 0 0 0 0 0 0 0 1 0"/>
<feBlend mode="normal" in2="BackgroundImageFix" result="effect1_dropShadow_4640_664"/>
<feBlend mode="normal" in="SourceGraphic" in2="effect1_dropShadow_4640_664" result="shape"/>
</filter>
</defs>
</svg>
